# xmcd
#
# Track frame offsets:
#	150
#	23381
#	47679
#	69610
#	91609
#	114385
#	133607
#	155677
#	180883
#	202396
#	224470
#	246738
#
# Disc length: 3610 seconds
#
# Revision: 1
# Processed by: cddbd v1.5.2PL0 Copyright (c) Steve Scherf et al.
# Submitted via: EZCDAudioConverter 8.0.2.1
#
DISCID=a70e180c
DTITLE=Trịnh Lam - Biển Và Anh Vẫn Hát
DYEAR=2009
DGENRE=Indie - Alternative
TTITLE0=Mây khói
TTITLE1=Trái tim ngục tù
TTITLE2=Biển Và Anh Vẫn Hát
TTITLE3=Một lần thôi
TTITLE4=Ân tình đánh mất
TTITLE5=Trả lại
TTITLE6=Lời cuối cho em
TTITLE7=Lạc bước bên đời
TTITLE8=Làm quen
TTITLE9=Đêm vẫn mong chờ
TTITLE10=Hỡi người dối gian
TTITLE11=Nếu vắng em
EXTD=
EXTT0=
EXTT1=
EXTT2=
EXTT3=
EXTT4=
EXTT5=
EXTT6=
EXTT7=
EXTT8=
EXTT9=
EXTT10=
EXTT11=
PLAYORDER=
